<svg width="3046" height="1771" xmlns="http://www.w3.org/2000/svg" xmlns:xlink="http://www.w3.org/1999/xlink" xml:space="preserve" overflow="hidden"><defs><clipPath id="clip0"><rect x="3300" y="3606" width="3046" height="1771"/></clipPath></defs><g clip-path="url(#clip0)" transform="translate(-3300 -3606)"><path d="M3300 3651.84C3300 3626.53 3320.53 3606 3345.84 3606L4774.16 3606C4799.47 3606 4820 3626.53 4820 3651.84L4820 4492.16C4820 4517.47 4799.47 4538 4774.16 4538L3345.84 4538C3320.53 4538 3300 4517.47 3300 4492.16Z" fill="#FFFFFF" fill-rule="evenodd"/><g><rect x="3610" y="3722" width="1037" height="455" fill="#FFFFFF"/></g><g><path d="M3610 4063.13 4647 4063.13M3610 3950.13 4647 3950.13M3610 3836.13 4647 3836.13M3610 3722 4647 3722" stroke="#B7B7B7" stroke-width="2.29167" stroke-linejoin="round" stroke-miterlimit="10" fill="none"/></g><g><path d="M3956.13 3722 3956.13 4177M4301.14 3722 4301.14 4177M4647 3722 4647 4177" stroke="#B7B7B7" stroke-width="2.29167" stroke-linejoin="round" stroke-miterlimit="10" fill="none"/></g><g><path d="M0 0 0.000360892 455" stroke="#898989" stroke-width="2.29167" stroke-linejoin="round" stroke-miterlimit="10" fill="none" fill-rule="evenodd" transform="matrix(1 0 0 -1 3610 4177)"/></g><g><path d="M3610 4177 4647 4177" stroke="#898989" stroke-width="2.29167" stroke-linejoin="round" stroke-miterlimit="10" fill="none" fill-rule="evenodd"/></g><g><path d="M3972 4063.43C3972 4072.26 3964.84 4079.43 3956 4079.43 3947.16 4079.43 3940 4072.26 3940 4063.43 3940 4054.59 3947.16 4047.43 3956 4047.43 3964.84 4047.43 3972 4054.59 3972 4063.43Z" stroke="#36632B" stroke-width="2.29167" stroke-linejoin="round" stroke-miterlimit="10" fill="#36632B"/><path d="M4006 4109.43C4006 4118.27 3998.84 4125.43 3990 4125.43 3981.16 4125.43 3974 4118.27 3974 4109.43 3974 4100.59 3981.16 4093.43 3990 4093.43 3998.84 4093.43 4006 4100.59 4006 4109.43Z" stroke="#36632B" stroke-width="2.29167" stroke-linejoin="round" stroke-miterlimit="10" fill="#36632B"/><path d="M4041 4063.43C4041 4072.26 4033.84 4079.43 4025 4079.43 4016.16 4079.43 4009 4072.26 4009 4063.43 4009 4054.59 4016.16 4047.43 4025 4047.43 4033.84 4047.43 4041 4054.59 4041 4063.43Z" stroke="#36632B" stroke-width="2.29167" stroke-linejoin="round" stroke-miterlimit="10" fill="#36632B"/><path d="M4075 4086.43C4075 4095.26 4067.84 4102.43 4059 4102.43 4050.16 4102.43 4043 4095.26 4043 4086.43 4043 4077.59 4050.16 4070.43 4059 4070.43 4067.84 4070.43 4075 4077.59 4075 4086.43Z" stroke="#36632B" stroke-width="2.29167" stroke-linejoin="round" stroke-miterlimit="10" fill="#36632B"/><path d="M4110 4018.43C4110 4027.26 4102.84 4034.43 4094 4034.43 4085.16 4034.43 4078 4027.26 4078 4018.43 4078 4009.59 4085.16 4002.43 4094 4002.43 4102.84 4002.43 4110 4009.59 4110 4018.43Z" stroke="#36632B" stroke-width="2.29167" stroke-linejoin="round" stroke-miterlimit="10" fill="#36632B"/><path d="M4145 4063.43C4145 4072.26 4137.84 4079.43 4129 4079.43 4120.16 4079.43 4113 4072.26 4113 4063.43 4113 4054.59 4120.16 4047.43 4129 4047.43 4137.84 4047.43 4145 4054.59 4145 4063.43Z" stroke="#36632B" stroke-width="2.29167" stroke-linejoin="round" stroke-miterlimit="10" fill="#36632B"/><path d="M4179 4018.43C4179 4027.26 4171.84 4034.43 4163 4034.43 4154.16 4034.43 4147 4027.26 4147 4018.43 4147 4009.59 4154.16 4002.43 4163 4002.43 4171.84 4002.43 4179 4009.59 4179 4018.43Z" stroke="#36632B" stroke-width="2.29167" stroke-linejoin="round" stroke-miterlimit="10" fill="#36632B"/><path d="M4214 3950.43C4214 3959.26 4206.84 3966.43 4198 3966.43 4189.16 3966.43 4182 3959.26 4182 3950.43 4182 3941.59 4189.16 3934.43 4198 3934.43 4206.84 3934.43 4214 3941.59 4214 3950.43Z" stroke="#36632B" stroke-width="2.29167" stroke-linejoin="round" stroke-miterlimit="10" fill="#36632B"/><path d="M4248 3904.43C4248 3913.27 4240.84 3920.43 4232 3920.43 4223.16 3920.43 4216 3913.27 4216 3904.43 4216 3895.59 4223.16 3888.43 4232 3888.43 4240.84 3888.43 4248 3895.59 4248 3904.43Z" stroke="#36632B" stroke-width="2.29167" stroke-linejoin="round" stroke-miterlimit="10" fill="#36632B"/><path d="M4283 3859.43C4283 3868.27 4275.84 3875.43 4267 3875.43 4258.16 3875.43 4251 3868.27 4251 3859.43 4251 3850.59 4258.16 3843.43 4267 3843.43 4275.84 3843.43 4283 3850.59 4283 3859.43Z" stroke="#36632B" stroke-width="2.29167" stroke-linejoin="round" stroke-miterlimit="10" fill="#36632B"/><path d="M4317 3904.43C4317 3913.27 4309.84 3920.43 4301 3920.43 4292.16 3920.43 4285 3913.27 4285 3904.43 4285 3895.59 4292.16 3888.43 4301 3888.43 4309.84 3888.43 4317 3895.59 4317 3904.43Z" stroke="#36632B" stroke-width="2.29167" stroke-linejoin="round" stroke-miterlimit="10" fill="#36632B"/><path d="M4352 3813.43C4352 3822.26 4344.84 3829.43 4336 3829.43 4327.16 3829.43 4320 3822.26 4320 3813.43 4320 3804.59 4327.16 3797.43 4336 3797.43 4344.84 3797.43 4352 3804.59 4352 3813.43Z" stroke="#36632B" stroke-width="2.29167" stroke-linejoin="round" stroke-miterlimit="10" fill="#36632B"/><path d="M4386 3836.43C4386 3845.27 4378.84 3852.43 4370 3852.43 4361.16 3852.43 4354 3845.27 4354 3836.43 4354 3827.59 4361.16 3820.43 4370 3820.43 4378.84 3820.43 4386 3827.59 4386 3836.43Z" stroke="#36632B" stroke-width="2.29167" stroke-linejoin="round" stroke-miterlimit="10" fill="#36632B"/><path d="M4421 3768.43C4421 3777.26 4413.84 3784.43 4405 3784.43 4396.16 3784.43 4389 3777.26 4389 3768.43 4389 3759.59 4396.16 3752.43 4405 3752.43 4413.84 3752.43 4421 3759.59 4421 3768.43Z" stroke="#36632B" stroke-width="2.29167" stroke-linejoin="round" stroke-miterlimit="10" fill="#36632B"/><path d="M4455 3836.43C4455 3845.27 4447.84 3852.43 4439 3852.43 4430.16 3852.43 4423 3845.27 4423 3836.43 4423 3827.59 4430.16 3820.43 4439 3820.43 4447.84 3820.43 4455 3827.59 4455 3836.43Z" stroke="#36632B" stroke-width="2.29167" stroke-linejoin="round" stroke-miterlimit="10" fill="#36632B"/><path d="M4490 3745.43C4490 3754.26 4482.84 3761.43 4474 3761.43 4465.16 3761.43 4458 3754.26 4458 3745.43 4458 3736.59 4465.16 3729.43 4474 3729.43 4482.84 3729.43 4490 3736.59 4490 3745.43Z" stroke="#36632B" stroke-width="2.29167" stroke-linejoin="round" stroke-miterlimit="10" fill="#36632B"/><path d="M4524 3768.43C4524 3777.26 4516.84 3784.43 4508 3784.43 4499.16 3784.43 4492 3777.26 4492 3768.43 4492 3759.59 4499.16 3752.43 4508 3752.43 4516.84 3752.43 4524 3759.59 4524 3768.43Z" stroke="#36632B" stroke-width="2.29167" stroke-linejoin="round" stroke-miterlimit="10" fill="#36632B"/><path d="M4559 3768.43C4559 3777.26 4551.84 3784.43 4543 3784.43 4534.16 3784.43 4527 3777.26 4527 3768.43 4527 3759.59 4534.16 3752.43 4543 3752.43 4551.84 3752.43 4559 3759.59 4559 3768.43Z" stroke="#36632B" stroke-width="2.29167" stroke-linejoin="round" stroke-miterlimit="10" fill="#36632B"/><path d="M4593 3813.43C4593 3822.26 4585.84 3829.43 4577 3829.43 4568.16 3829.43 4561 3822.26 4561 3813.43 4561 3804.59 4568.16 3797.43 4577 3797.43 4585.84 3797.43 4593 3804.59 4593 3813.43Z" stroke="#36632B" stroke-width="2.29167" stroke-linejoin="round" stroke-miterlimit="10" fill="#36632B"/><path d="M4628 3745.43C4628 3754.26 4620.84 3761.43 4612 3761.43 4603.16 3761.43 4596 3754.26 4596 3745.43 4596 3736.59 4603.16 3729.43 4612 3729.43 4620.84 3729.43 4628 3736.59 4628 3745.43Z" stroke="#36632B" stroke-width="2.29167" stroke-linejoin="round" stroke-miterlimit="10" fill="#36632B"/></g><g><text font-family="Open Sans,Open Sans_MSFontService,sans-serif" font-weight="400" font-size="73" transform="matrix(1 0 0 1 3492.5 4199)">0</text></g><g><text font-family="Open Sans,Open Sans_MSFontService,sans-serif" font-weight="400" font-size="73" transform="matrix(1 0 0 1 3492.5 4085)">5</text></g><g><text font-family="Open Sans,Open Sans_MSFontService,sans-serif" font-weight="400" font-size="73" transform="matrix(1 0 0 1 3450.56 3971)">10</text></g><g><text font-family="Open Sans,Open Sans_MSFontService,sans-serif" font-weight="400" font-size="73" transform="matrix(1 0 0 1 3450.56 3857)">15</text></g><g><text font-family="Open Sans,Open Sans_MSFontService,sans-serif" font-weight="400" font-size="73" transform="matrix(1 0 0 1 3450.56 3744)">20</text></g><g><text font-family="Open Sans,Open Sans_MSFontService,sans-serif" font-weight="400" font-size="73" transform="matrix(1 0 0 1 3589.52 4307)">0</text></g><g><text font-family="Open Sans,Open Sans_MSFontService,sans-serif" font-weight="400" font-size="73" transform="matrix(1 0 0 1 3913.89 4307)">50</text></g><g><text font-family="Open Sans,Open Sans_MSFontService,sans-serif" font-weight="400" font-size="73" transform="matrix(1 0 0 1 4238.26 4307)">100</text></g><g><text font-family="Open Sans,Open Sans_MSFontService,sans-serif" font-weight="400" font-size="73" transform="matrix(1 0 0 1 4583.6 4307)">150</text></g><g><text font-family="Calibri,Calibri_MSFontService,sans-serif" font-weight="400" font-size="73" transform="matrix(6.12323e-17 -1 1 6.12323e-17 3403.68 4294)">Cold Beverage Sales</text></g><g><text font-family="Calibri,Calibri_MSFontService,sans-serif" font-weight="400" font-size="73" transform="matrix(1 0 0 1 3943.99 4390)">Temperature</text></g><path d="M4824 3651.84C4824 3626.53 4844.53 3606 4869.84 3606L6298.16 3606C6323.47 3606 6344 3626.53 6344 3651.84L6344 4492.16C6344 4517.47 6323.47 4538 6298.16 4538L4869.84 4538C4844.53 4538 4824 4517.47 4824 4492.16Z" fill="#FFFFFF" fill-rule="evenodd"/><g><rect x="5134" y="3722" width="1036" height="455" fill="#FFFFFF"/></g><g><path d="M5134 4063.13 6170 4063.13M5134 3950.13 6170 3950.13M5134 3836.13 6170 3836.13M5134 3722 6170 3722" stroke="#B7B7B7" stroke-width="2.29167" stroke-linejoin="round" stroke-miterlimit="10" fill="none"/></g><g><path d="M5479.18 3722 5479.18 4177M5825.19 3722 5825.19 4177M6170 3722 6170 4177" stroke="#B7B7B7" stroke-width="2.29167" stroke-linejoin="round" stroke-miterlimit="10" fill="none"/></g><g><path d="M0 0 0.000360892 455" stroke="#898989" stroke-width="2.29167" stroke-linejoin="round" stroke-miterlimit="10" fill="none" fill-rule="evenodd" transform="matrix(1 0 0 -1 5134 4177)"/></g><g><path d="M5134 4177 6170 4177" stroke="#898989" stroke-width="2.29167" stroke-linejoin="round" stroke-miterlimit="10" fill="none" fill-rule="evenodd"/></g><g><path d="M5495.7 3768.43C5495.7 3777.26 5488.53 3784.43 5479.7 3784.43 5470.86 3784.43 5463.7 3777.26 5463.7 3768.43 5463.7 3759.59 5470.86 3752.43 5479.7 3752.43 5488.53 3752.43 5495.7 3759.59 5495.7 3768.43Z" stroke="#C00000" stroke-width="2.29167" stroke-linejoin="round" stroke-miterlimit="10" fill="#C00000"/><path d="M5529.7 3813.43C5529.7 3822.26 5522.53 3829.43 5513.7 3829.43 5504.86 3829.43 5497.7 3822.26 5497.7 3813.43 5497.7 3804.59 5504.86 3797.43 5513.7 3797.43 5522.53 3797.43 5529.7 3804.59 5529.7 3813.43Z" stroke="#C00000" stroke-width="2.29167" stroke-linejoin="round" stroke-miterlimit="10" fill="#C00000"/><path d="M5564.7 3836.43C5564.7 3845.27 5557.53 3852.43 5548.7 3852.43 5539.86 3852.43 5532.7 3845.27 5532.7 3836.43 5532.7 3827.59 5539.86 3820.43 5548.7 3820.43 5557.53 3820.43 5564.7 3827.59 5564.7 3836.43Z" stroke="#C00000" stroke-width="2.29167" stroke-linejoin="round" stroke-miterlimit="10" fill="#C00000"/><path d="M5598.7 3790.43C5598.7 3799.26 5591.53 3806.43 5582.7 3806.43 5573.86 3806.43 5566.7 3799.26 5566.7 3790.43 5566.7 3781.59 5573.86 3774.43 5582.7 3774.43 5591.53 3774.43 5598.7 3781.59 5598.7 3790.43Z" stroke="#C00000" stroke-width="2.29167" stroke-linejoin="round" stroke-miterlimit="10" fill="#C00000"/><path d="M5633.7 3813.43C5633.7 3822.26 5626.53 3829.43 5617.7 3829.43 5608.86 3829.43 5601.7 3822.26 5601.7 3813.43 5601.7 3804.59 5608.86 3797.43 5617.7 3797.43 5626.53 3797.43 5633.7 3804.59 5633.7 3813.43Z" stroke="#C00000" stroke-width="2.29167" stroke-linejoin="round" stroke-miterlimit="10" fill="#C00000"/><path d="M5667.7 3881.43C5667.7 3890.27 5660.53 3897.43 5651.7 3897.43 5642.86 3897.43 5635.7 3890.27 5635.7 3881.43 5635.7 3872.59 5642.86 3865.43 5651.7 3865.43 5660.53 3865.43 5667.7 3872.59 5667.7 3881.43Z" stroke="#C00000" stroke-width="2.29167" stroke-linejoin="round" stroke-miterlimit="10" fill="#C00000"/><path d="M5702.7 3768.43C5702.7 3777.26 5695.53 3784.43 5686.7 3784.43 5677.86 3784.43 5670.7 3777.26 5670.7 3768.43 5670.7 3759.59 5677.86 3752.43 5686.7 3752.43 5695.53 3752.43 5702.7 3759.59 5702.7 3768.43Z" stroke="#C00000" stroke-width="2.29167" stroke-linejoin="round" stroke-miterlimit="10" fill="#C00000"/><path d="M5736.7 3836.43C5736.7 3845.27 5729.53 3852.43 5720.7 3852.43 5711.86 3852.43 5704.7 3845.27 5704.7 3836.43 5704.7 3827.59 5711.86 3820.43 5720.7 3820.43 5729.53 3820.43 5736.7 3827.59 5736.7 3836.43Z" stroke="#C00000" stroke-width="2.29167" stroke-linejoin="round" stroke-miterlimit="10" fill="#C00000"/><path d="M5771.7 3859.43C5771.7 3868.27 5764.53 3875.43 5755.7 3875.43 5746.86 3875.43 5739.7 3868.27 5739.7 3859.43 5739.7 3850.59 5746.86 3843.43 5755.7 3843.43 5764.53 3843.43 5771.7 3850.59 5771.7 3859.43Z" stroke="#C00000" stroke-width="2.29167" stroke-linejoin="round" stroke-miterlimit="10" fill="#C00000"/><path d="M5805.7 3927.43C5805.7 3936.27 5798.53 3943.43 5789.7 3943.43 5780.86 3943.43 5773.7 3936.27 5773.7 3927.43 5773.7 3918.59 5780.86 3911.43 5789.7 3911.43 5798.53 3911.43 5805.7 3918.59 5805.7 3927.43Z" stroke="#C00000" stroke-width="2.29167" stroke-linejoin="round" stroke-miterlimit="10" fill="#C00000"/><path d="M5840.7 3995.43C5840.7 4004.26 5833.53 4011.43 5824.7 4011.43 5815.86 4011.43 5808.7 4004.26 5808.7 3995.43 5808.7 3986.59 5815.86 3979.43 5824.7 3979.43 5833.53 3979.43 5840.7 3986.59 5840.7 3995.43Z" stroke="#C00000" stroke-width="2.29167" stroke-linejoin="round" stroke-miterlimit="10" fill="#C00000"/><path d="M5874.7 3927.43C5874.7 3936.27 5867.53 3943.43 5858.7 3943.43 5849.86 3943.43 5842.7 3936.27 5842.7 3927.43 5842.7 3918.59 5849.86 3911.43 5858.7 3911.43 5867.53 3911.43 5874.7 3918.59 5874.7 3927.43Z" stroke="#C00000" stroke-width="2.29167" stroke-linejoin="round" stroke-miterlimit="10" fill="#C00000"/><path d="M5909.7 3950.43C5909.7 3959.26 5902.53 3966.43 5893.7 3966.43 5884.86 3966.43 5877.7 3959.26 5877.7 3950.43 5877.7 3941.59 5884.86 3934.43 5893.7 3934.43 5902.53 3934.43 5909.7 3941.59 5909.7 3950.43Z" stroke="#C00000" stroke-width="2.29167" stroke-linejoin="round" stroke-miterlimit="10" fill="#C00000"/><path d="M5943.7 4018.43C5943.7 4027.26 5936.53 4034.43 5927.7 4034.43 5918.86 4034.43 5911.7 4027.26 5911.7 4018.43 5911.7 4009.59 5918.86 4002.43 5927.7 4002.43 5936.53 4002.43 5943.7 4009.59 5943.7 4018.43Z" stroke="#C00000" stroke-width="2.29167" stroke-linejoin="round" stroke-miterlimit="10" fill="#C00000"/><path d="M5978.7 4063.43C5978.7 4072.26 5971.53 4079.43 5962.7 4079.43 5953.86 4079.43 5946.7 4072.26 5946.7 4063.43 5946.7 4054.59 5953.86 4047.43 5962.7 4047.43 5971.53 4047.43 5978.7 4054.59 5978.7 4063.43Z" stroke="#C00000" stroke-width="2.29167" stroke-linejoin="round" stroke-miterlimit="10" fill="#C00000"/><path d="M6013.7 3972.43C6013.7 3981.26 6006.53 3988.43 5997.7 3988.43 5988.86 3988.43 5981.7 3981.26 5981.7 3972.43 5981.7 3963.59 5988.86 3956.43 5997.7 3956.43 6006.53 3956.43 6013.7 3963.59 6013.7 3972.43Z" stroke="#C00000" stroke-width="2.29167" stroke-linejoin="round" stroke-miterlimit="10" fill="#C00000"/><path d="M6047.7 4086.43C6047.7 4095.26 6040.53 4102.43 6031.7 4102.43 6022.86 4102.43 6015.7 4095.26 6015.7 4086.43 6015.7 4077.59 6022.86 4070.43 6031.7 4070.43 6040.53 4070.43 6047.7 4077.59 6047.7 4086.43Z" stroke="#C00000" stroke-width="2.29167" stroke-linejoin="round" stroke-miterlimit="10" fill="#C00000"/><path d="M6082.7 4041.43C6082.7 4050.26 6075.53 4057.43 6066.7 4057.43 6057.86 4057.43 6050.7 4050.26 6050.7 4041.43 6050.7 4032.59 6057.86 4025.43 6066.7 4025.43 6075.53 4025.43 6082.7 4032.59 6082.7 4041.43Z" stroke="#C00000" stroke-width="2.29167" stroke-linejoin="round" stroke-miterlimit="10" fill="#C00000"/><path d="M6116.7 4109.43C6116.7 4118.27 6109.53 4125.43 6100.7 4125.43 6091.86 4125.43 6084.7 4118.27 6084.7 4109.43 6084.7 4100.59 6091.86 4093.43 6100.7 4093.43 6109.53 4093.43 6116.7 4100.59 6116.7 4109.43Z" stroke="#C00000" stroke-width="2.29167" stroke-linejoin="round" stroke-miterlimit="10" fill="#C00000"/><path d="M6151.7 4063.43C6151.7 4072.26 6144.53 4079.43 6135.7 4079.43 6126.86 4079.43 6119.7 4072.26 6119.7 4063.43 6119.7 4054.59 6126.86 4047.43 6135.7 4047.43 6144.53 4047.43 6151.7 4054.59 6151.7 4063.43Z" stroke="#C00000" stroke-width="2.29167" stroke-linejoin="round" stroke-miterlimit="10" fill="#C00000"/></g><g><text font-family="Open Sans,Open Sans_MSFontService,sans-serif" font-weight="400" font-size="73" transform="matrix(1 0 0 1 5016.19 4199)">0</text></g><g><text font-family="Open Sans,Open Sans_MSFontService,sans-serif" font-weight="400" font-size="73" transform="matrix(1 0 0 1 5016.19 4085)">5</text></g><g><text font-family="Open Sans,Open Sans_MSFontService,sans-serif" font-weight="400" font-size="73" transform="matrix(1 0 0 1 4974.25 3971)">10</text></g><g><text font-family="Open Sans,Open Sans_MSFontService,sans-serif" font-weight="400" font-size="73" transform="matrix(1 0 0 1 4974.25 3857)">15</text></g><g><text font-family="Open Sans,Open Sans_MSFontService,sans-serif" font-weight="400" font-size="73" transform="matrix(1 0 0 1 4974.25 3744)">20</text></g><g><text font-family="Open Sans,Open Sans_MSFontService,sans-serif" font-weight="400" font-size="73" transform="matrix(1 0 0 1 5113.22 4307)">0</text></g><g><text font-family="Open Sans,Open Sans_MSFontService,sans-serif" font-weight="400" font-size="73" transform="matrix(1 0 0 1 5437.59 4307)">50</text></g><g><text font-family="Open Sans,Open Sans_MSFontService,sans-serif" font-weight="400" font-size="73" transform="matrix(1 0 0 1 5761.96 4307)">100</text></g><g><text font-family="Open Sans,Open Sans_MSFontService,sans-serif" font-weight="400" font-size="73" transform="matrix(1 0 0 1 6107.3 4307)">150</text></g><g><text font-family="Calibri,Calibri_MSFontService,sans-serif" font-weight="400" font-size="73" transform="matrix(6.12323e-17 -1 1 6.12323e-17 4936.54 4272)">Hot Beverage Sales</text></g><g><text font-family="Calibri,Calibri_MSFontService,sans-serif" font-weight="400" font-size="73" transform="matrix(1 0 0 1 5453.93 4408)">Temperature</text></g><path d="M3300 4484.81C3300 4459.51 3320.51 4439 3345.81 4439L4774.19 4439C4799.49 4439 4820 4459.51 4820 4484.81L4820 5331.19C4820 5356.49 4799.49 5377 4774.19 5377L3345.81 5377C3320.51 5377 3300 5356.49 3300 5331.19Z" fill="#FFFFFF" fill-rule="evenodd"/><g><rect x="3610" y="4555" width="1037" height="460" fill="#FFFFFF"/></g><g><path d="M3610 4900.16 4647 4900.16M3610 4785.16 4647 4785.16M3610 4670.15 4647 4670.15M3610 4555 4647 4555" stroke="#B7B7B7" stroke-width="2.29167" stroke-linejoin="round" stroke-miterlimit="10" fill="none"/></g><g><path d="M3956.13 4555 3956.13 5015M4301.14 4555 4301.14 5015M4647 4555 4647 5015" stroke="#B7B7B7" stroke-width="2.29167" stroke-linejoin="round" stroke-miterlimit="10" fill="none"/></g><g><path d="M0 0 0.000360892 460" stroke="#898989" stroke-width="2.29167" stroke-linejoin="round" stroke-miterlimit="10" fill="none" fill-rule="evenodd" transform="matrix(1 0 0 -1 3610 5015)"/></g><g><path d="M3610 5015 4647 5015" stroke="#898989" stroke-width="2.29167" stroke-linejoin="round" stroke-miterlimit="10" fill="none" fill-rule="evenodd"/></g><g><path d="M3972 4853.89C3972 4862.73 3964.84 4869.89 3956 4869.89 3947.16 4869.89 3940 4862.73 3940 4853.89 3940 4845.05 3947.16 4837.89 3956 4837.89 3964.84 4837.89 3972 4845.05 3972 4853.89Z" stroke="#36632B" stroke-width="2.29167" stroke-linejoin="round" stroke-miterlimit="10" fill="#36632B"/><path d="M4006 4968.89C4006 4977.73 3998.84 4984.89 3990 4984.89 3981.16 4984.89 3974 4977.73 3974 4968.89 3974 4960.06 3981.16 4952.89 3990 4952.89 3998.84 4952.89 4006 4960.06 4006 4968.89Z" stroke="#36632B" stroke-width="2.29167" stroke-linejoin="round" stroke-miterlimit="10" fill="#36632B"/><path d="M4041 4807.89C4041 4816.73 4033.84 4823.89 4025 4823.89 4016.16 4823.89 4009 4816.73 4009 4807.89 4009 4799.05 4016.16 4791.89 4025 4791.89 4033.84 4791.89 4041 4799.05 4041 4807.89Z" stroke="#36632B" stroke-width="2.29167" stroke-linejoin="round" stroke-miterlimit="10" fill="#36632B"/><path d="M4075 4945.89C4075 4954.73 4067.84 4961.89 4059 4961.89 4050.16 4961.89 4043 4954.73 4043 4945.89 4043 4937.06 4050.16 4929.89 4059 4929.89 4067.84 4929.89 4075 4937.06 4075 4945.89Z" stroke="#36632B" stroke-width="2.29167" stroke-linejoin="round" stroke-miterlimit="10" fill="#36632B"/><path d="M4110 4761.89C4110 4770.73 4102.84 4777.89 4094 4777.89 4085.16 4777.89 4078 4770.73 4078 4761.89 4078 4753.06 4085.16 4745.89 4094 4745.89 4102.84 4745.89 4110 4753.06 4110 4761.89Z" stroke="#36632B" stroke-width="2.29167" stroke-linejoin="round" stroke-miterlimit="10" fill="#36632B"/><path d="M4145 4922.89C4145 4931.73 4137.84 4938.89 4129 4938.89 4120.16 4938.89 4113 4931.73 4113 4922.89 4113 4914.06 4120.16 4906.89 4129 4906.89 4137.84 4906.89 4145 4914.06 4145 4922.89Z" stroke="#36632B" stroke-width="2.29167" stroke-linejoin="round" stroke-miterlimit="10" fill="#36632B"/><path d="M4179 4807.89C4179 4816.73 4171.84 4823.89 4163 4823.89 4154.16 4823.89 4147 4816.73 4147 4807.89 4147 4799.05 4154.16 4791.89 4163 4791.89 4171.84 4791.89 4179 4799.05 4179 4807.89Z" stroke="#36632B" stroke-width="2.29167" stroke-linejoin="round" stroke-miterlimit="10" fill="#36632B"/><path d="M4214 4899.89C4214 4908.73 4206.84 4915.89 4198 4915.89 4189.16 4915.89 4182 4908.73 4182 4899.89 4182 4891.06 4189.16 4883.89 4198 4883.89 4206.84 4883.89 4214 4891.06 4214 4899.89Z" stroke="#36632B" stroke-width="2.29167" stroke-linejoin="round" stroke-miterlimit="10" fill="#36632B"/><path d="M4248 4761.89C4248 4770.73 4240.84 4777.89 4232 4777.89 4223.16 4777.89 4216 4770.73 4216 4761.89 4216 4753.06 4223.16 4745.89 4232 4745.89 4240.84 4745.89 4248 4753.06 4248 4761.89Z" stroke="#36632B" stroke-width="2.29167" stroke-linejoin="round" stroke-miterlimit="10" fill="#36632B"/><path d="M4283 4807.89C4283 4816.73 4275.84 4823.89 4267 4823.89 4258.16 4823.89 4251 4816.73 4251 4807.89 4251 4799.05 4258.16 4791.89 4267 4791.89 4275.84 4791.89 4283 4799.05 4283 4807.89Z" stroke="#36632B" stroke-width="2.29167" stroke-linejoin="round" stroke-miterlimit="10" fill="#36632B"/><path d="M4317 4646.89C4317 4655.73 4309.84 4662.89 4301 4662.89 4292.16 4662.89 4285 4655.73 4285 4646.89 4285 4638.06 4292.16 4630.89 4301 4630.89 4309.84 4630.89 4317 4638.06 4317 4646.89Z" stroke="#36632B" stroke-width="2.29167" stroke-linejoin="round" stroke-miterlimit="10" fill="#36632B"/><path d="M4352 4600.89C4352 4609.73 4344.84 4616.89 4336 4616.89 4327.16 4616.89 4320 4609.73 4320 4600.89 4320 4592.05 4327.16 4584.89 4336 4584.89 4344.84 4584.89 4352 4592.05 4352 4600.89Z" stroke="#36632B" stroke-width="2.29167" stroke-linejoin="round" stroke-miterlimit="10" fill="#36632B"/><path d="M4386 4761.89C4386 4770.73 4378.84 4777.89 4370 4777.89 4361.16 4777.89 4354 4770.73 4354 4761.89 4354 4753.06 4361.16 4745.89 4370 4745.89 4378.84 4745.89 4386 4753.06 4386 4761.89Z" stroke="#36632B" stroke-width="2.29167" stroke-linejoin="round" stroke-miterlimit="10" fill="#36632B"/><path d="M4421 4623.89C4421 4632.73 4413.84 4639.89 4405 4639.89 4396.16 4639.89 4389 4632.73 4389 4623.89 4389 4615.05 4396.16 4607.89 4405 4607.89 4413.84 4607.89 4421 4615.05 4421 4623.89Z" stroke="#36632B" stroke-width="2.29167" stroke-linejoin="round" stroke-miterlimit="10" fill="#36632B"/><path d="M4455 4715.89C4455 4724.73 4447.84 4731.89 4439 4731.89 4430.16 4731.89 4423 4724.73 4423 4715.89 4423 4707.06 4430.16 4699.89 4439 4699.89 4447.84 4699.89 4455 4707.06 4455 4715.89Z" stroke="#36632B" stroke-width="2.29167" stroke-linejoin="round" stroke-miterlimit="10" fill="#36632B"/><path d="M4490 4807.89C4490 4816.73 4482.84 4823.89 4474 4823.89 4465.16 4823.89 4458 4816.73 4458 4807.89 4458 4799.05 4465.16 4791.89 4474 4791.89 4482.84 4791.89 4490 4799.05 4490 4807.89Z" stroke="#36632B" stroke-width="2.29167" stroke-linejoin="round" stroke-miterlimit="10" fill="#36632B"/><path d="M4524 4577.89C4524 4586.73 4516.84 4593.89 4508 4593.89 4499.16 4593.89 4492 4586.73 4492 4577.89 4492 4569.05 4499.16 4561.89 4508 4561.89 4516.84 4561.89 4524 4569.05 4524 4577.89Z" stroke="#36632B" stroke-width="2.29167" stroke-linejoin="round" stroke-miterlimit="10" fill="#36632B"/><path d="M4559 4784.89C4559 4793.73 4551.84 4800.89 4543 4800.89 4534.16 4800.89 4527 4793.73 4527 4784.89 4527 4776.06 4534.16 4768.89 4543 4768.89 4551.84 4768.89 4559 4776.06 4559 4784.89Z" stroke="#36632B" stroke-width="2.29167" stroke-linejoin="round" stroke-miterlimit="10" fill="#36632B"/><path d="M4593 4738.89C4593 4747.73 4585.84 4754.89 4577 4754.89 4568.16 4754.89 4561 4747.73 4561 4738.89 4561 4730.06 4568.16 4722.89 4577 4722.89 4585.84 4722.89 4593 4730.06 4593 4738.89Z" stroke="#36632B" stroke-width="2.29167" stroke-linejoin="round" stroke-miterlimit="10" fill="#36632B"/><path d="M4628 4623.89C4628 4632.73 4620.84 4639.89 4612 4639.89 4603.16 4639.89 4596 4632.73 4596 4623.89 4596 4615.05 4603.16 4607.89 4612 4607.89 4620.84 4607.89 4628 4615.05 4628 4623.89Z" stroke="#36632B" stroke-width="2.29167" stroke-linejoin="round" stroke-miterlimit="10" fill="#36632B"/></g><g><text font-family="Open Sans,Open Sans_MSFontService,sans-serif" font-weight="400" font-size="73" transform="matrix(1 0 0 1 3492.5 5036)">0</text></g><g><text font-family="Open Sans,Open Sans_MSFontService,sans-serif" font-weight="400" font-size="73" transform="matrix(1 0 0 1 3492.5 4921)">5</text></g><g><text font-family="Open Sans,Open Sans_MSFontService,sans-serif" font-weight="400" font-size="73" transform="matrix(1 0 0 1 3450.56 4806)">10</text></g><g><text font-family="Open Sans,Open Sans_MSFontService,sans-serif" font-weight="400" font-size="73" transform="matrix(1 0 0 1 3450.56 4691)">15</text></g><g><text font-family="Open Sans,Open Sans_MSFontService,sans-serif" font-weight="400" font-size="73" transform="matrix(1 0 0 1 3450.56 4577)">20</text></g><g><text font-family="Open Sans,Open Sans_MSFontService,sans-serif" font-weight="400" font-size="73" transform="matrix(1 0 0 1 3589.52 5145)">0</text></g><g><text font-family="Open Sans,Open Sans_MSFontService,sans-serif" font-weight="400" font-size="73" transform="matrix(1 0 0 1 3913.89 5145)">50</text></g><g><text font-family="Open Sans,Open Sans_MSFontService,sans-serif" font-weight="400" font-size="73" transform="matrix(1 0 0 1 4238.26 5145)">100</text></g><g><text font-family="Open Sans,Open Sans_MSFontService,sans-serif" font-weight="400" font-size="73" transform="matrix(1 0 0 1 4583.6 5145)">150</text></g><g><text font-family="Calibri,Calibri_MSFontService,sans-serif" font-weight="400" font-size="73" transform="matrix(6.12323e-17 -1 1 6.12323e-17 3408.26 5123)">Cold Beverage Sales</text></g><g><text font-family="Calibri,Calibri_MSFontService,sans-serif" font-weight="400" font-size="73" transform="matrix(1 0 0 1 3939.4 5228)">Temperature</text></g><path d="M4825 4484.81C4825 4459.51 4845.51 4439 4870.81 4439L6300.19 4439C6325.49 4439 6346 4459.51 6346 4484.81L6346 5331.19C6346 5356.49 6325.49 5377 6300.19 5377L4870.81 5377C4845.51 5377 4825 5356.49 4825 5331.19Z" fill="#FFFFFF" fill-rule="evenodd"/><g><rect x="5136" y="4555" width="1036" height="460" fill="#FFFFFF"/></g><g><path d="M5136 4900.16 6172 4900.16M5136 4785.16 6172 4785.16M5136 4670.15 6172 4670.15M5136 4555 6172 4555" stroke="#B7B7B7" stroke-width="2.29167" stroke-linejoin="round" stroke-miterlimit="10" fill="none"/></g><g><path d="M5481.18 4555 5481.18 5015M5826.19 4555 5826.19 5015M6172 4555 6172 5015" stroke="#B7B7B7" stroke-width="2.29167" stroke-linejoin="round" stroke-miterlimit="10" fill="none"/></g><g><path d="M0 0 0.000360892 460" stroke="#898989" stroke-width="2.29167" stroke-linejoin="round" stroke-miterlimit="10" fill="none" fill-rule="evenodd" transform="matrix(1 0 0 -1 5136 5015)"/></g><g><path d="M5136 5015 6172 5015" stroke="#898989" stroke-width="2.29167" stroke-linejoin="round" stroke-miterlimit="10" fill="none" fill-rule="evenodd"/></g><g><path d="M5497.07 4623.89C5497.07 4632.73 5489.91 4639.89 5481.07 4639.89 5472.23 4639.89 5465.07 4632.73 5465.07 4623.89 5465.07 4615.05 5472.23 4607.89 5481.07 4607.89 5489.91 4607.89 5497.07 4615.05 5497.07 4623.89Z" stroke="#C00000" stroke-width="2.29167" stroke-linejoin="round" stroke-miterlimit="10" fill="#C00000"/><path d="M5531.07 4738.89C5531.07 4747.73 5523.91 4754.89 5515.07 4754.89 5506.23 4754.89 5499.07 4747.73 5499.07 4738.89 5499.07 4730.06 5506.23 4722.89 5515.07 4722.89 5523.91 4722.89 5531.07 4730.06 5531.07 4738.89Z" stroke="#C00000" stroke-width="2.29167" stroke-linejoin="round" stroke-miterlimit="10" fill="#C00000"/><path d="M5566.07 4784.89C5566.07 4793.73 5558.91 4800.89 5550.07 4800.89 5541.23 4800.89 5534.07 4793.73 5534.07 4784.89 5534.07 4776.06 5541.23 4768.89 5550.07 4768.89 5558.91 4768.89 5566.07 4776.06 5566.07 4784.89Z" stroke="#C00000" stroke-width="2.29167" stroke-linejoin="round" stroke-miterlimit="10" fill="#C00000"/><path d="M5601.07 4623.89C5601.07 4632.73 5593.91 4639.89 5585.07 4639.89 5576.24 4639.89 5569.07 4632.73 5569.07 4623.89 5569.07 4615.05 5576.24 4607.89 5585.07 4607.89 5593.91 4607.89 5601.07 4615.05 5601.07 4623.89Z" stroke="#C00000" stroke-width="2.29167" stroke-linejoin="round" stroke-miterlimit="10" fill="#C00000"/><path d="M5635.07 4807.89C5635.07 4816.73 5627.91 4823.89 5619.07 4823.89 5610.24 4823.89 5603.07 4816.73 5603.07 4807.89 5603.07 4799.05 5610.24 4791.89 5619.07 4791.89 5627.91 4791.89 5635.07 4799.05 5635.07 4807.89Z" stroke="#C00000" stroke-width="2.29167" stroke-linejoin="round" stroke-miterlimit="10" fill="#C00000"/><path d="M5670.07 4669.89C5670.07 4678.73 5662.91 4685.89 5654.07 4685.89 5645.24 4685.89 5638.07 4678.73 5638.07 4669.89 5638.07 4661.06 5645.24 4653.89 5654.07 4653.89 5662.91 4653.89 5670.07 4661.06 5670.07 4669.89Z" stroke="#C00000" stroke-width="2.29167" stroke-linejoin="round" stroke-miterlimit="10" fill="#C00000"/><path d="M5704.07 4715.89C5704.07 4724.73 5696.91 4731.89 5688.07 4731.89 5679.23 4731.89 5672.07 4724.73 5672.07 4715.89 5672.07 4707.06 5679.23 4699.89 5688.07 4699.89 5696.91 4699.89 5704.07 4707.06 5704.07 4715.89Z" stroke="#C00000" stroke-width="2.29167" stroke-linejoin="round" stroke-miterlimit="10" fill="#C00000"/><path d="M5739.07 4761.89C5739.07 4770.73 5731.91 4777.89 5723.07 4777.89 5714.23 4777.89 5707.07 4770.73 5707.07 4761.89 5707.07 4753.06 5714.23 4745.89 5723.07 4745.89 5731.91 4745.89 5739.07 4753.06 5739.07 4761.89Z" stroke="#C00000" stroke-width="2.29167" stroke-linejoin="round" stroke-miterlimit="10" fill="#C00000"/><path d="M5773.07 4600.89C5773.07 4609.73 5765.91 4616.89 5757.07 4616.89 5748.23 4616.89 5741.07 4609.73 5741.07 4600.89 5741.07 4592.05 5748.23 4584.89 5757.07 4584.89 5765.91 4584.89 5773.07 4592.05 5773.07 4600.89Z" stroke="#C00000" stroke-width="2.29167" stroke-linejoin="round" stroke-miterlimit="10" fill="#C00000"/><path d="M5808.07 4669.89C5808.07 4678.73 5800.91 4685.89 5792.07 4685.89 5783.23 4685.89 5776.07 4678.73 5776.07 4669.89 5776.07 4661.06 5783.23 4653.89 5792.07 4653.89 5800.91 4653.89 5808.07 4661.06 5808.07 4669.89Z" stroke="#C00000" stroke-width="2.29167" stroke-linejoin="round" stroke-miterlimit="10" fill="#C00000"/><path d="M5842.07 4876.89C5842.07 4885.73 5834.91 4892.89 5826.07 4892.89 5817.23 4892.89 5810.07 4885.73 5810.07 4876.89 5810.07 4868.05 5817.23 4860.89 5826.07 4860.89 5834.91 4860.89 5842.07 4868.05 5842.07 4876.89Z" stroke="#C00000" stroke-width="2.29167" stroke-linejoin="round" stroke-miterlimit="10" fill="#C00000"/><path d="M5877.07 4738.89C5877.07 4747.73 5869.91 4754.89 5861.07 4754.89 5852.24 4754.89 5845.07 4747.73 5845.07 4738.89 5845.07 4730.06 5852.24 4722.89 5861.07 4722.89 5869.91 4722.89 5877.07 4730.06 5877.07 4738.89Z" stroke="#C00000" stroke-width="2.29167" stroke-linejoin="round" stroke-miterlimit="10" fill="#C00000"/><path d="M5911.07 4876.89C5911.07 4885.73 5903.91 4892.89 5895.07 4892.89 5886.24 4892.89 5879.07 4885.73 5879.07 4876.89 5879.07 4868.05 5886.24 4860.89 5895.07 4860.89 5903.91 4860.89 5911.07 4868.05 5911.07 4876.89Z" stroke="#C00000" stroke-width="2.29167" stroke-linejoin="round" stroke-miterlimit="10" fill="#C00000"/><path d="M5946.07 4853.89C5946.07 4862.73 5938.91 4869.89 5930.07 4869.89 5921.23 4869.89 5914.07 4862.73 5914.07 4853.89 5914.07 4845.05 5921.23 4837.89 5930.07 4837.89 5938.91 4837.89 5946.07 4845.05 5946.07 4853.89Z" stroke="#C00000" stroke-width="2.29167" stroke-linejoin="round" stroke-miterlimit="10" fill="#C00000"/><path d="M5980.07 4922.89C5980.07 4931.73 5972.91 4938.89 5964.07 4938.89 5955.23 4938.89 5948.07 4931.73 5948.07 4922.89 5948.07 4914.06 5955.23 4906.89 5964.07 4906.89 5972.91 4906.89 5980.07 4914.06 5980.07 4922.89Z" stroke="#C00000" stroke-width="2.29167" stroke-linejoin="round" stroke-miterlimit="10" fill="#C00000"/><path d="M6015.07 4738.89C6015.07 4747.73 6007.91 4754.89 5999.07 4754.89 5990.23 4754.89 5983.07 4747.73 5983.07 4738.89 5983.07 4730.06 5990.23 4722.89 5999.07 4722.89 6007.91 4722.89 6015.07 4730.06 6015.07 4738.89Z" stroke="#C00000" stroke-width="2.29167" stroke-linejoin="round" stroke-miterlimit="10" fill="#C00000"/><path d="M6049.07 4945.89C6049.07 4954.73 6041.91 4961.89 6033.07 4961.89 6024.23 4961.89 6017.07 4954.73 6017.07 4945.89 6017.07 4937.06 6024.23 4929.89 6033.07 4929.89 6041.91 4929.89 6049.07 4937.06 6049.07 4945.89Z" stroke="#C00000" stroke-width="2.29167" stroke-linejoin="round" stroke-miterlimit="10" fill="#C00000"/><path d="M6084.07 4807.89C6084.07 4816.73 6076.91 4823.89 6068.07 4823.89 6059.23 4823.89 6052.07 4816.73 6052.07 4807.89 6052.07 4799.05 6059.23 4791.89 6068.07 4791.89 6076.91 4791.89 6084.07 4799.05 6084.07 4807.89Z" stroke="#C00000" stroke-width="2.29167" stroke-linejoin="round" stroke-miterlimit="10" fill="#C00000"/><path d="M6119.07 4945.89C6119.07 4954.73 6111.91 4961.89 6103.07 4961.89 6094.24 4961.89 6087.07 4954.73 6087.07 4945.89 6087.07 4937.06 6094.24 4929.89 6103.07 4929.89 6111.91 4929.89 6119.07 4937.06 6119.07 4945.89Z" stroke="#C00000" stroke-width="2.29167" stroke-linejoin="round" stroke-miterlimit="10" fill="#C00000"/><path d="M6153.07 4807.89C6153.07 4816.73 6145.91 4823.89 6137.07 4823.89 6128.24 4823.89 6121.07 4816.73 6121.07 4807.89 6121.07 4799.05 6128.24 4791.89 6137.07 4791.89 6145.91 4791.89 6153.07 4799.05 6153.07 4807.89Z" stroke="#C00000" stroke-width="2.29167" stroke-linejoin="round" stroke-miterlimit="10" fill="#C00000"/></g><g><text font-family="Open Sans,Open Sans_MSFontService,sans-serif" font-weight="400" font-size="73" transform="matrix(1 0 0 1 5017.57 5036)">0</text></g><g><text font-family="Open Sans,Open Sans_MSFontService,sans-serif" font-weight="400" font-size="73" transform="matrix(1 0 0 1 5017.57 4921)">5</text></g><g><text font-family="Open Sans,Open Sans_MSFontService,sans-serif" font-weight="400" font-size="73" transform="matrix(1 0 0 1 4975.63 4806)">10</text></g><g><text font-family="Open Sans,Open Sans_MSFontService,sans-serif" font-weight="400" font-size="73" transform="matrix(1 0 0 1 4975.63 4691)">15</text></g><g><text font-family="Open Sans,Open Sans_MSFontService,sans-serif" font-weight="400" font-size="73" transform="matrix(1 0 0 1 4975.63 4577)">20</text></g><g><text font-family="Open Sans,Open Sans_MSFontService,sans-serif" font-weight="400" font-size="73" transform="matrix(1 0 0 1 5114.6 5145)">0</text></g><g><text font-family="Open Sans,Open Sans_MSFontService,sans-serif" font-weight="400" font-size="73" transform="matrix(1 0 0 1 5438.97 5145)">50</text></g><g><text font-family="Open Sans,Open Sans_MSFontService,sans-serif" font-weight="400" font-size="73" transform="matrix(1 0 0 1 5763.34 5145)">100</text></g><g><text font-family="Open Sans,Open Sans_MSFontService,sans-serif" font-weight="400" font-size="73" transform="matrix(1 0 0 1 6108.67 5145)">150</text></g><g><text font-family="Calibri,Calibri_MSFontService,sans-serif" font-weight="400" font-size="73" transform="matrix(6.12323e-17 -1 1 6.12323e-17 4937.92 5096)">Hot Beverage Sales</text></g><g><text font-family="Calibri,Calibri_MSFontService,sans-serif" font-weight="400" font-size="73" transform="matrix(1 0 0 1 5487.39 5237)">Temperature</text></g></g></svg>